{
	"asset":{
		"generator":"Khronos glTF Blender I/O v4.1.63",
		"version":"2.0"
	},
	"scene":0,
	"scenes":[
		{
			"name":"Scene",
			"nodes":[
				0
			]
		}
	],
	"nodes":[
		{
			"mesh":0,
			"name":"Road",
			"rotation":[
				-0.7071069478988647,
				0,
				0,
				0.7071065902709961
			],
			"scale":[
				3,
				9.999999046325684,
				2.999999761581421
			],
			"translation":[
				0,
				34.75502014160156,
				0
			]
		}
	],
	"materials":[
		{
			"doubleSided":true,
			"name":"Glass",
			"pbrMetallicRoughness":{
				"baseColorFactor":[
					0,
					0,
					0,
					1
				],
				"metallicFactor":0,
				"roughnessFactor":0.5
			}
		},
		{
			"doubleSided":true,
			"name":"skeleton",
			"pbrMetallicRoughness":{
				"baseColorFactor":[
					0.0025790915824472904,
					0.0025790915824472904,
					0.0025790915824472904,
					1
				],
				"metallicFactor":0.5669291615486145,
				"roughnessFactor":0.5
			}
		},
		{
			"alphaMode":"BLEND",
			"doubleSided":true,
			"name":"Road",
			"pbrMetallicRoughness":{
				"baseColorTexture":{
					"index":0
				},
				"metallicFactor":0,
				"roughnessFactor":0.5
			}
		}
	],
	"meshes":[
		{
			"name":"Box.057",
			"primitives":[
				{
					"attributes":{
						"POSITION":0,
						"NORMAL":1,
						"TEXCOORD_0":2,
						"COLOR_0":3
					},
					"indices":4,
					"material":0
				},
				{
					"attributes":{
						"POSITION":5,
						"NORMAL":6,
						"TEXCOORD_0":7,
						"COLOR_0":8
					},
					"indices":9,
					"material":1
				},
				{
					"attributes":{
						"POSITION":10,
						"NORMAL":11,
						"TEXCOORD_0":12,
						"COLOR_0":13
					},
					"indices":14,
					"material":2
				}
			]
		}
	],
	"textures":[
		{
			"sampler":0,
			"source":0
		}
	],
	"images":[
		{
			"mimeType":"image/png",
			"name":"FullHD3",
			"uri":"FullHD3.png"
		}
	],
	"accessors":[
		{
			"bufferView":0,
			"componentType":5126,
			"count":48,
			"max":[
				6.298677444458008,
				5.8379411697387695,
				3.12310528755188
			],
			"min":[
				-6.346061706542969,
				-6.167129993438721,
				0.8254966139793396
			],
			"type":"VEC3"
		},
		{
			"bufferView":1,
			"componentType":5126,
			"count":48,
			"type":"VEC3"
		},
		{
			"bufferView":2,
			"componentType":5126,
			"count":48,
			"type":"VEC2"
		},
		{
			"bufferView":3,
			"componentType":5126,
			"count":48,
			"type":"VEC3"
		},
		{
			"bufferView":4,
			"componentType":5123,
			"count":72,
			"type":"SCALAR"
		},
		{
			"bufferView":5,
			"componentType":5126,
			"count":9895,
			"max":[
				6.4866790771484375,
				5.838005065917969,
				4.502996444702148
			],
			"min":[
				-6.541236877441406,
				-6.1619873046875,
				-6.881167888641357
			],
			"type":"VEC3"
		},
		{
			"bufferView":6,
			"componentType":5126,
			"count":9895,
			"type":"VEC3"
		},
		{
			"bufferView":7,
			"componentType":5126,
			"count":9895,
			"type":"VEC2"
		},
		{
			"bufferView":8,
			"componentType":5126,
			"count":9895,
			"type":"VEC3"
		},
		{
			"bufferView":9,
			"componentType":5123,
			"count":15702,
			"type":"SCALAR"
		},
		{
			"bufferView":10,
			"componentType":5126,
			"count":20,
			"max":[
				6.105666637420654,
				5.826969146728516,
				4.191200256347656
			],
			"min":[
				-6.1530656814575195,
				-6.150951862335205,
				0.37431395053863525
			],
			"type":"VEC3"
		},
		{
			"bufferView":11,
			"componentType":5126,
			"count":20,
			"type":"VEC3"
		},
		{
			"bufferView":12,
			"componentType":5126,
			"count":20,
			"type":"VEC2"
		},
		{
			"bufferView":13,
			"componentType":5126,
			"count":20,
			"type":"VEC3"
		},
		{
			"bufferView":14,
			"componentType":5123,
			"count":42,
			"type":"SCALAR"
		}
	],
	"bufferViews":[
		{
			"buffer":0,
			"byteLength":576,
			"byteOffset":0,
			"target":34962
		},
		{
			"buffer":0,
			"byteLength":576,
			"byteOffset":576,
			"target":34962
		},
		{
			"buffer":0,
			"byteLength":384,
			"byteOffset":1152,
			"target":34962
		},
		{
			"buffer":0,
			"byteLength":576,
			"byteOffset":1536,
			"target":34962
		},
		{
			"buffer":0,
			"byteLength":144,
			"byteOffset":2112,
			"target":34963
		},
		{
			"buffer":0,
			"byteLength":118740,
			"byteOffset":2256,
			"target":34962
		},
		{
			"buffer":0,
			"byteLength":118740,
			"byteOffset":120996,
			"target":34962
		},
		{
			"buffer":0,
			"byteLength":79160,
			"byteOffset":239736,
			"target":34962
		},
		{
			"buffer":0,
			"byteLength":118740,
			"byteOffset":318896,
			"target":34962
		},
		{
			"buffer":0,
			"byteLength":31404,
			"byteOffset":437636,
			"target":34963
		},
		{
			"buffer":0,
			"byteLength":240,
			"byteOffset":469040,
			"target":34962
		},
		{
			"buffer":0,
			"byteLength":240,
			"byteOffset":469280,
			"target":34962
		},
		{
			"buffer":0,
			"byteLength":160,
			"byteOffset":469520,
			"target":34962
		},
		{
			"buffer":0,
			"byteLength":240,
			"byteOffset":469680,
			"target":34962
		},
		{
			"buffer":0,
			"byteLength":84,
			"byteOffset":469920,
			"target":34963
		}
	],
	"samplers":[
		{
			"magFilter":9729,
			"minFilter":9987
		}
	],
	"buffers":[
		{
			"byteLength":470004,
			"uri":"RoadSegment.bin"
		}
	]
}
